<svg width="1024" height="1024" viewBox="0 0 1024 1024" fill="none" xmlns="http://www.w3.org/2000/svg">
<path d="M58.0662 599.522L209.569 511.999L360.625 599.521V948.618L472.536 1013.45C496.761 1027.49 526.636 1027.52 550.886 1013.52L926.796 796.603C951.013 782.623 965.934 756.785 965.934 728.818V295.146C965.934 267.179 951.012 241.341 926.788 227.361L550.886 10.4765C526.636 -3.51946 496.761 -3.48667 472.536 10.5421L360.625 75.379L814.328 337.47V511.999L663.263 599.521V424.476L209.569 162.352L97.1583 227.345C72.9663 241.333 58.0694 267.154 58.0694 295.097L58.0662 599.522Z" fill="#EB4666"/>
<path d="M209.569 511.999L209.565 861.532L58.0662 948.62V599.522L209.569 511.999Z" fill="#8D2A3D"/>
</svg>
