<svg width="1000" height="1000" viewBox="0 0 1000 1000" fill="none" xmlns="http://www.w3.org/2000/svg">
<path d="M211.858 555.556L308.027 499.999L403.913 555.555V777.15L474.95 818.306C490.327 827.216 509.291 827.232 524.683 818.348L763.298 680.656C778.67 671.782 788.142 655.381 788.142 637.628V362.349C788.142 344.596 778.67 328.195 763.293 319.321L524.683 181.65C509.291 172.766 490.327 172.787 474.95 181.692L403.913 222.848L691.908 389.215V499.999L596.017 555.555V444.443L308.027 278.056L236.673 319.311C221.316 328.19 211.86 344.58 211.86 362.318L211.858 555.556Z" fill="#EB4666"/>
<path d="M308.027 499.999L308.025 721.871L211.858 777.151V555.556L308.027 499.999Z" fill="#8D2A3D"/>
</svg>
