<svg width="40" height="40" viewBox="0 0 40 40" fill="none" xmlns="http://www.w3.org/2000/svg">
<path d="M8.47437 22.2222L12.3211 20L16.1565 22.2222V31.086L18.998 32.7323C19.6131 33.0887 20.3717 33.0893 20.9874 32.7339L30.532 27.2262C31.1468 26.8713 31.5257 26.2152 31.5257 25.5051V14.494C31.5257 13.7838 31.1468 13.1278 30.5317 12.7728L20.9874 7.26601C20.3717 6.91064 19.6131 6.91147 18.998 7.26767L16.1565 8.91392L27.6763 15.5686V20L23.8407 22.2222V17.7777L12.3211 11.1222L9.46694 12.7724C8.85269 13.1276 8.47445 13.7832 8.47445 14.4927L8.47437 22.2222Z" fill="#EB4666"/>
<path d="M12.3211 20L12.321 28.8748L8.47437 31.086V22.2222L12.3211 20Z" fill="#8D2A3D"/>
</svg>
