<svg width="134" height="32" viewBox="0 0 134 32" fill="none" xmlns="http://www.w3.org/2000/svg">
<path d="M44.6858 18.0928C39.7933 18.0928 38.3197 15.9707 38.3197 11.5793C38.3197 7.36448 39.6753 5.21292 44.6858 5.21292H56.8135C57.7172 5.21292 58.4497 5.94537 58.4497 6.84904V8.41044C58.4497 9.31411 57.7172 10.0466 56.8135 10.0466H45.8646C44.5384 10.0466 44.0667 10.5771 44.0667 11.9624C44.0667 13.318 44.5384 13.8486 45.8646 13.8486H52.8203C57.7128 13.8486 59.157 15.8822 59.157 20.2444C59.157 24.5769 57.7425 26.7579 52.8203 26.7579H40.1621C39.2584 26.7579 38.5259 26.0255 38.5259 25.1218V23.5898C38.5259 22.6864 39.2584 21.9537 40.1621 21.9537H51.671C52.9677 21.9537 53.4689 21.3937 53.4689 19.979C53.4689 18.5054 52.9086 18.0928 51.671 18.0928H44.6858Z" fill="#EB4666"/>
<path d="M69.7672 18.1812H77.165L73.4515 10.3412L69.7672 18.1812ZM71.2887 5.21303H75.4961C76.1205 5.21303 76.6907 5.56851 76.9653 6.12949L85.9142 24.4022C86.4466 25.4892 85.6553 26.758 84.445 26.758H82.2694C81.6362 26.758 81.0599 26.3926 80.7896 25.8201L79.2577 22.5729H67.7039L66.172 25.8201C65.9017 26.3926 65.3254 26.758 64.6922 26.758H62.34C61.1295 26.758 60.3382 25.4892 60.8705 24.4022L69.8194 6.12949C70.094 5.56851 70.6642 5.21303 71.2887 5.21303Z" fill="#EB4666"/>
<path d="M101.244 9.86972H90.4427C89.539 9.86972 88.8066 9.13727 88.8066 8.2336V6.84904C88.8066 5.94537 89.539 5.21292 90.4427 5.21292H107.389C108.293 5.21292 109.025 5.94537 109.025 6.84904V8.78511C109.025 9.21583 108.855 9.6289 108.553 9.93524L96.5286 22.1011H107.389C108.293 22.1011 109.025 22.8336 109.025 23.7372V25.1218C109.025 26.0255 108.293 26.7579 107.389 26.7579H90.4427C89.539 26.7579 88.8066 26.0255 88.8066 25.1218V22.9285C88.8066 22.4932 88.9801 22.0758 89.2885 21.7689L101.244 9.86972Z" fill="#EB4666"/>
<path d="M122.494 22.4255C117.513 22.4255 116.717 20.8044 116.717 16.0002C116.717 11.196 117.513 9.57499 122.494 9.57499C127.475 9.57499 128.271 11.196 128.271 16.0002C128.271 20.8044 127.475 22.4255 122.494 22.4255ZM122.493 4.79995C112.974 4.79995 111.029 7.86567 111.029 16.0002C111.029 24.1348 112.974 27.2 122.494 27.2C132.014 27.2 133.959 24.1348 133.959 16.0002C133.959 11.7818 133.436 8.92724 131.604 7.15573L133.959 4.80148L122.493 4.79995Z" fill="#EB4666"/>
<path d="M0 18.7351L4.73445 16L9.45498 18.735V29.6443L12.9522 31.6705C13.7092 32.1091 14.6428 32.1099 15.4006 31.6725L27.1478 24.8938C27.9046 24.457 28.3709 23.6495 28.3709 22.7756V9.22333C28.3709 8.34935 27.9046 7.5419 27.1475 7.10504L15.4006 0.327392C14.6428 -0.109983 13.7092 -0.108958 12.9522 0.32944L9.45498 2.35559L23.6332 10.5459V16L18.9124 18.735V13.2649L4.73445 5.07351L1.22163 7.10453C0.465628 7.54165 0.000101533 8.34858 0.000101533 9.22179L0 18.7351Z" fill="#EB4666"/>
<path d="M4.73445 16L4.73435 26.9229L0 29.6444V18.7351L4.73445 16Z" fill="#8D2A3D"/>
</svg>
